<svg width="142" height="150" viewBox="0 0 142 150" fill="none" xmlns="http://www.w3.org/2000/svg">
<path d="M17.25 19.6C20.95 19.6 24.1833 20.35 26.95 21.85C29.75 23.35 31.9 25.4333 33.4 28.1C34.9 30.7667 35.65 33.8 35.65 37.2C35.65 40.5667 34.9 43.6 33.4 46.3C31.9 49 29.75 51.1333 26.95 52.7C24.1833 54.2333 20.95 55 17.25 55H2.5V19.6H17.25ZM16.25 45.1C18.75 45.1 20.7333 44.4167 22.2 43.05C23.6667 41.6833 24.4 39.7333 24.4 37.2C24.4 34.6667 23.6667 32.7167 22.2 31.35C20.7333 29.9833 18.75 29.3 16.25 29.3H13.6V45.1H16.25ZM50.7582 28.45V32.8H61.7582V41.15H50.7582V46.15H63.2582V55H39.6582V19.6H63.2582V28.45H50.7582ZM101.391 55H90.2914L78.5414 37.2V55H67.4414V19.6H78.5414L90.2914 37.7V19.6H101.391V55ZM128.106 31.7C127.673 31 127.056 30.4667 126.256 30.1C125.456 29.7 124.49 29.5 123.356 29.5C121.223 29.5 119.573 30.2 118.406 31.6C117.24 32.9667 116.656 34.85 116.656 37.25C116.656 40.0167 117.306 42.0833 118.606 43.45C119.906 44.8167 121.906 45.5 124.606 45.5C127.173 45.5 129.24 44.4667 130.806 42.4H121.956V34.55H140.006V45.65C138.473 48.2833 136.356 50.55 133.656 52.45C130.956 54.3167 127.54 55.25 123.406 55.25C119.74 55.25 116.54 54.5 113.806 53C111.106 51.4667 109.023 49.3333 107.556 46.6C106.123 43.8667 105.406 40.75 105.406 37.25C105.406 33.75 106.123 30.6333 107.556 27.9C109.023 25.1667 111.106 23.05 113.806 21.55C116.506 20.0167 119.673 19.25 123.306 19.25C127.94 19.25 131.706 20.3667 134.606 22.6C137.54 24.8333 139.273 27.8667 139.806 31.7H128.106ZM27.5 94.6V103.4H13.6V108.3H23.6V116.65H13.6V130H2.5V94.6H27.5ZM42.3598 121.6H53.0598V130H31.2598V94.6H42.3598V121.6Z" fill="white"/>
<path d="M87 111C87 115.418 83.6421 119 79.5 119C75.3579 119 72 115.418 72 111C72 106.582 75.3579 103 79.5 103C83.6421 103 87 106.582 87 111Z" fill="#FF0000"/>
<ellipse cx="105.5" cy="111" rx="7.5" ry="8" fill="#FF0000"/>
<ellipse cx="131.5" cy="111" rx="7.5" ry="8" fill="#FF0000"/>
</svg>
